<?xml version="1.0" standalone="no"?>
<!DOCTYPE svg PUBLIC "-//W3C//DTD SVG 20010904//EN"
 "http://www.w3.org/TR/2001/REC-SVG-20010904/DTD/svg10.dtd">
<svg version="1.0" xmlns="http://www.w3.org/2000/svg"
 width="1920.000000pt" height="1920.000000pt" viewBox="0 0 1920.000000 1920.000000"
 preserveAspectRatio="xMidYMid meet">
<metadata>
Created by potrace 1.15, written by Peter Selinger 2001-2017
</metadata>
<g transform="translate(0.000000,1920.000000) scale(0.100000,-0.100000)"
fill="#000000" stroke="none">
<path d="M9300 18744 c0 -8 298 -149 412 -195 195 -78 126 -15 -83 75 -135 58
-329 129 -329 120z"/>
<path d="M9765 18710 c66 -22 393 -111 493 -134 34 -8 62 -10 62 -5 0 20 -439
138 -570 154 -45 5 -45 5 15 -15z"/>
<path d="M10650 18562 c24 -15 435 -150 539 -178 51 -13 103 -24 115 -24 l21
1 -22 18 c-33 27 -225 93 -408 139 -165 42 -273 61 -245 44z"/>
<path d="M9024 18504 c-11 -44 1 -177 20 -212 39 -75 79 -4 57 101 -14 65 -45
137 -61 137 -5 0 -13 -12 -16 -26z"/>
<path d="M9500 18502 c0 -34 198 -233 300 -302 70 -47 107 -59 116 -36 13 33
-72 126 -206 225 -121 90 -210 138 -210 113z"/>
<path d="M10076 18501 c5 -5 77 -45 161 -90 253 -135 447 -221 500 -221 l27 0
-27 28 c-58 61 -293 176 -511 251 -113 39 -171 52 -150 32z"/>
<path d="M11610 18395 c0 -28 538 -232 661 -251 44 -7 44 -7 26 14 -40 44
-278 143 -502 207 -106 31 -185 44 -185 30z"/>
<path d="M10988 18230 c84 -75 341 -212 593 -316 127 -52 189 -65 189 -40 0
38 -116 118 -305 211 -204 100 -433 186 -494 185 -25 -1 -25 -2 17 -40z"/>
<path d="M8610 18181 c-63 -66 -93 -201 -47 -209 37 -7 79 52 103 143 18 66
17 92 -2 99 -11 4 -29 -6 -54 -33z"/>
<path d="M12550 18199 c40 -34 202 -111 380 -182 172 -68 230 -85 230 -69 0
43 -516 273 -609 272 l-26 -1 25 -20z"/>
<path d="M9360 18169 c-8 -14 -11 -46 -7 -88 14 -194 168 -380 247 -301 41 41
21 134 -55 255 -78 125 -159 184 -185 134z"/>
<path d="M10180 18178 c0 -74 335 -371 490 -435 157 -65 175 5 37 142 -128
128 -388 289 -485 302 -33 4 -42 2 -42 -9z"/>
<path d="M13360 18000 c55 -44 431 -248 488 -265 45 -13 20 13 -70 72 -127 84
-387 213 -427 213 -12 0 -10 -5 9 -20z"/>
<path d="M11950 17992 c0 -32 189 -163 397 -276 270 -146 463 -212 463 -157 0
27 -96 111 -203 177 -119 74 -367 194 -483 233 -86 29 -174 41 -174 23z"/>
<path d="M11044 17847 c-27 -72 336 -390 601 -528 87 -45 157 -53 174 -21 44
83 -274 364 -577 510 -102 50 -187 66 -198 39z"/>
<path d="M8862 17795 c-44 -37 -64 -96 -69 -205 -8 -151 24 -230 93 -230 82 0
130 106 122 269 -8 167 -66 233 -146 166z"/>
<path d="M9954 17773 c-13 -13 -15 -29 -11 -79 8 -104 87 -263 188 -378 146
-166 326 -164 288 2 -25 112 -143 284 -261 383 -102 84 -168 108 -204 72z"/>
<path d="M12930 17726 c0 -74 670 -487 816 -504 41 -4 44 -3 44 19 0 61 -236
235 -500 368 -225 114 -360 158 -360 117z"/>
<path d="M12038 17504 c-75 -75 371 -486 694 -639 96 -46 151 -55 178 -30 27
25 25 51 -9 110 -41 71 -99 133 -209 226 -209 174 -480 329 -590 337 -32 2
-60 0 -64 -4z"/>
<path d="M13856 17461 c-26 -42 389 -352 678 -507 139 -75 165 -53 64 52 -117
122 -381 308 -572 404 -107 53 -159 69 -170 51z"/>
<path d="M8039 17401 c-58 -36 -123 -132 -150 -221 -25 -85 -22 -127 11 -151
53 -40 150 20 208 129 37 69 66 182 57 223 -12 55 -59 63 -126 20z"/>
<path d="M10781 17364 c-21 -15 -23 -23 -19 -83 11 -196 283 -545 486 -624 53
-21 131 -22 159 -2 78 54 33 211 -113 393 -184 231 -424 378 -513 316z"/>
<path d="M9330 17303 c-58 -59 -72 -141 -45 -277 37 -195 152 -346 263 -346
38 0 50 5 77 34 81 86 78 270 -7 441 -59 119 -135 185 -214 185 -29 0 -44 -8
-74 -37z"/>
<path d="M14620 17179 c0 -39 504 -459 640 -533 97 -53 78 -16 -62 120 -144
140 -351 303 -494 389 -60 36 -84 43 -84 24z"/>
<path d="M13073 17163 c-7 -2 -13 -22 -13 -43 0 -50 55 -124 191 -256 239
-231 543 -440 668 -460 31 -5 43 -2 60 15 27 27 27 34 -9 109 -52 111 -259
308 -478 456 -195 132 -361 203 -419 179z"/>
<path d="M6964 17029 c-44 -13 -124 -86 -145 -134 -33 -71 -16 -145 34 -145
30 0 126 103 160 173 47 94 30 130 -49 106z"/>
<path d="M11762 16917 c-53 -57 -30 -174 65 -325 133 -211 319 -394 482 -475
84 -41 179 -49 228 -18 88 56 54 214 -87 402 -63 84 -229 243 -322 310 -165
116 -315 160 -366 106z"/>
<path d="M8456 16876 c-117 -43 -196 -201 -196 -392 0 -106 22 -179 67 -221
30 -29 41 -33 86 -33 149 0 256 190 245 435 -8 177 -83 255 -202 211z"/>
<path d="M10115 16836 c-108 -47 -134 -212 -66 -415 77 -229 227 -393 375
-408 167 -17 244 123 185 337 -58 211 -220 429 -356 480 -62 23 -96 25 -138 6z"/>
<path d="M14091 16796 c-37 -44 70 -196 285 -406 282 -275 561 -449 622 -388
46 46 -26 175 -198 352 -267 276 -650 514 -709 442z"/>
<path d="M15420 16548 c0 -55 429 -502 456 -475 25 25 -249 341 -387 445 -59
45 -69 49 -69 30z"/>
<path d="M12905 16514 c-6 -1 -22 -5 -37 -8 -60 -13 -73 -97 -34 -209 89 -252
445 -639 675 -734 60 -24 148 -30 182 -13 79 43 61 220 -40 389 -117 197 -358
423 -556 521 -71 34 -163 61 -190 54z"/>
<path d="M15005 16449 c-13 -20 6 -77 47 -140 138 -215 548 -602 719 -678 110
-50 102 44 -18 214 -210 295 -697 688 -748 604z"/>
<path d="M7233 16429 c-84 -42 -188 -184 -219 -303 -32 -120 -9 -210 62 -235
36 -13 43 -12 92 9 68 30 131 99 182 204 73 149 88 270 39 322 -29 31 -96 33
-156 3z"/>
<path d="M11099 16311 c-44 -14 -74 -39 -100 -83 -22 -39 -24 -54 -23 -158 1
-97 5 -128 29 -200 120 -368 390 -609 611 -545 179 52 222 258 104 503 -103
216 -280 400 -444 460 -62 24 -142 34 -177 23z"/>
<path d="M9120 16301 c-137 -42 -214 -186 -213 -396 1 -254 138 -464 304 -465
58 0 139 40 179 88 104 126 123 310 53 507 -34 93 -62 141 -120 197 -66 65
-137 89 -203 69z"/>
<path d="M15774 16089 c-11 -18 5 -54 61 -137 107 -161 381 -481 532 -622 310
-290 29 185 -329 555 -153 158 -247 231 -264 204z"/>
<path d="M13988 16073 c-41 -6 -68 -47 -68 -103 0 -123 111 -325 308 -561 287
-343 606 -504 662 -334 17 52 -2 132 -65 260 -69 143 -163 272 -300 413 -228
237 -405 343 -537 325z"/>
<path d="M5833 16009 c-89 -44 -193 -196 -193 -281 0 -73 61 -98 139 -59 86
44 201 212 201 293 0 67 -65 88 -147 47z"/>
<path d="M12200 15789 c-72 -29 -120 -118 -120 -225 0 -260 223 -657 452 -805
207 -133 438 -88 494 97 19 64 18 117 -6 208 -65 256 -305 563 -526 674 -111
57 -229 77 -294 51z"/>
<path d="M7755 15756 c-164 -76 -270 -341 -224 -558 14 -67 59 -155 96 -190
143 -136 383 29 449 308 33 140 3 319 -67 399 -61 69 -161 85 -254 41z"/>
<path d="M16290 15714 c0 -12 523 -729 575 -789 l26 -30 -18 30 c-71 118 -354
514 -491 688 -83 104 -92 114 -92 101z"/>
<path d="M9955 15676 c-173 -80 -231 -370 -134 -661 57 -169 142 -281 257
-337 60 -29 77 -32 152 -32 72 0 93 4 135 26 160 84 211 274 144 536 -29 114
-116 285 -183 359 -111 122 -254 164 -371 109z"/>
<path d="M14986 15619 c-51 -74 17 -270 179 -514 250 -376 570 -626 692 -540
68 48 50 175 -54 375 -71 138 -166 270 -282 392 -180 190 -339 296 -456 306
-57 4 -64 2 -79 -19z"/>
<path d="M6288 15296 c-92 -25 -175 -102 -233 -216 -56 -111 -69 -165 -70
-272 0 -105 9 -128 69 -172 68 -51 193 -11 287 92 85 93 169 301 169 416 -1
64 -32 121 -79 145 -46 24 -76 25 -143 7z"/>
<path d="M16510 15289 c0 -45 171 -351 306 -547 l64 -93 -64 66 c-54 55 -70
66 -93 63 -37 -4 -40 -35 -13 -134 54 -197 339 -691 523 -906 91 -105 127
-115 127 -33 0 140 -210 569 -422 863 l-40 57 40 -42 c47 -51 78 -58 67 -16
-38 154 -382 683 -476 734 -16 8 -19 6 -19 -12z"/>
<path d="M13343 15264 c-25 -17 -53 -48 -70 -78 -26 -47 -28 -59 -27 -151 0
-85 5 -114 33 -195 154 -453 626 -887 865 -796 98 37 143 136 133 291 -15 225
-127 448 -338 669 -117 123 -206 191 -314 243 -66 31 -91 37 -159 41 -75 3
-84 2 -123 -24z"/>
<path d="M15940 15210 c-41 -41 -16 -149 75 -335 141 -288 420 -653 579 -759
50 -34 108 -35 130 -4 53 75 -34 325 -201 578 -187 283 -446 540 -545 540 -10
0 -27 -9 -38 -20z"/>
<path d="M8577 15086 c-120 -43 -219 -169 -277 -351 -27 -87 -38 -281 -21
-367 27 -126 115 -243 219 -291 73 -34 179 -31 256 7 180 88 297 324 283 570
-6 123 -33 213 -84 286 -84 121 -258 188 -376 146z"/>
<path d="M11070 15063 c-65 -24 -150 -113 -178 -187 -58 -153 -51 -341 19
-547 107 -313 335 -507 569 -485 227 21 359 227 321 499 -42 293 -228 590
-436 693 -68 34 -86 38 -163 41 -62 2 -100 -2 -132 -14z"/>
<path d="M4634 14840 c-122 -70 -217 -247 -190 -354 15 -60 109 -70 193 -21
90 54 182 198 191 300 4 47 1 57 -21 79 -37 37 -104 36 -173 -4z"/>
<path d="M14529 14747 c-44 -29 -79 -101 -86 -177 -26 -283 242 -804 517
-1008 115 -85 253 -122 343 -93 53 18 113 88 133 157 80 275 -214 825 -563
1054 -133 88 -273 115 -344 67z"/>
<path d="M6969 14536 c-117 -31 -217 -123 -285 -261 -64 -130 -88 -234 -82
-360 11 -212 105 -328 266 -327 229 1 431 295 435 632 2 132 -18 195 -78 255
-67 68 -155 89 -256 61z"/>
<path d="M12335 14471 c-58 -15 -104 -43 -150 -92 -94 -100 -130 -229 -122
-433 7 -192 57 -344 166 -505 93 -136 278 -271 436 -317 65 -19 196 -21 253
-5 93 27 186 113 224 210 19 48 22 75 23 191 0 160 -18 235 -96 398 -118 250
-276 436 -435 513 -79 38 -94 42 -178 45 -50 2 -104 0 -121 -5z"/>
<path d="M9585 14359 c-112 -36 -207 -128 -271 -264 -55 -115 -69 -183 -68
-335 0 -119 3 -144 27 -215 107 -322 437 -490 701 -358 102 51 180 148 227
280 33 90 38 293 11 400 -65 259 -228 443 -439 498 -74 19 -115 18 -188 -6z"/>
<path d="M17200 14334 c0 -7 93 -215 165 -368 33 -73 43 -101 34 -107 -10 -6
-10 -20 0 -66 31 -139 208 -617 293 -788 141 -285 172 -206 54 143 -19 56 -31
102 -26 102 19 0 -95 282 -232 575 -142 304 -288 562 -288 509z"/>
<path d="M15664 14281 c-29 -13 -70 -64 -86 -108 -20 -58 -15 -212 11 -318 71
-292 229 -583 421 -775 120 -120 192 -161 295 -168 66 -4 73 -2 103 23 43 36
62 75 72 148 38 266 -187 754 -485 1052 -62 62 -119 109 -150 125 -53 26 -145
36 -181 21z"/>
<path d="M5214 14046 c-98 -31 -190 -122 -254 -251 -71 -145 -88 -320 -41
-413 23 -45 71 -89 107 -98 44 -11 128 2 178 26 191 96 339 492 245 661 -43
77 -134 106 -235 75z"/>
<path d="M13630 13871 c-161 -49 -254 -198 -267 -426 -18 -334 159 -722 417
-913 167 -124 383 -157 533 -84 148 73 215 216 203 432 -21 386 -307 836 -608
957 -96 39 -214 53 -278 34z"/>
<path d="M16620 13767 c-67 -33 -88 -185 -50 -367 46 -227 176 -536 311 -739
72 -110 181 -224 232 -246 126 -53 199 19 200 195 1 47 -2 103 -6 125 -6 32 0
25 29 -40 45 -100 116 -208 157 -239 21 -16 39 -43 50 -78 31 -89 173 -370
214 -423 49 -63 85 -78 116 -47 21 21 22 31 21 165 -1 169 -24 287 -109 542
-149 451 -334 752 -414 673 -10 -11 -14 -10 -22 4 -12 21 -56 53 -86 62 -15 5
-28 1 -42 -13 -17 -17 -21 -34 -21 -96 0 -40 5 -97 11 -125 13 -62 6 -77 -11
-23 -23 71 -139 298 -201 393 -34 52 -97 130 -139 172 -104 105 -177 137 -240
105z"/>
<path d="M7890 13725 c-141 -29 -260 -136 -345 -310 -61 -125 -78 -197 -79
-335 -1 -129 11 -193 57 -290 43 -92 142 -189 222 -219 228 -86 504 101 611
415 21 61 28 104 32 191 5 134 -13 230 -64 332 -82 164 -260 252 -434 216z"/>
<path d="M10765 13662 c-161 -56 -265 -174 -327 -372 -20 -66 -23 -95 -23
-235 0 -190 18 -274 93 -425 87 -179 246 -307 427 -345 95 -20 167 -19 259 5
102 26 168 62 237 131 109 108 155 249 147 447 -18 446 -332 813 -693 812 -40
-1 -92 -8 -120 -18z"/>
<path d="M3475 13601 c-90 -40 -172 -176 -181 -298 -6 -80 13 -130 59 -151 88
-42 237 121 278 304 29 127 -45 196 -156 145z"/>
<path d="M14856 13300 c-75 -23 -152 -107 -186 -203 -65 -184 -47 -470 45
-727 71 -196 206 -403 330 -503 345 -278 674 -106 675 353 0 281 -112 566
-325 821 -67 80 -183 178 -256 214 -94 48 -210 66 -283 45z"/>
<path d="M5975 13152 c-125 -43 -209 -122 -275 -256 -62 -126 -75 -188 -75
-356 1 -158 15 -218 70 -302 56 -84 177 -130 286 -110 89 16 146 48 220 121
134 133 210 360 196 585 -9 161 -59 251 -169 305 -51 26 -73 31 -132 31 -41
-1 -93 -8 -121 -18z"/>
<path d="M12150 12974 c-205 -54 -347 -207 -406 -439 -21 -84 -24 -299 -5
-390 66 -317 245 -574 476 -685 344 -166 679 -11 781 360 29 104 24 326 -9
452 -118 447 -387 720 -707 717 -41 0 -100 -7 -130 -15z"/>
<path d="M9025 12939 c-280 -41 -455 -267 -472 -609 -9 -200 41 -400 139 -546
62 -93 124 -148 216 -192 61 -29 87 -35 160 -40 167 -9 280 35 403 157 128
128 183 274 182 486 -1 352 -171 649 -417 724 -83 25 -140 30 -211 20z"/>
<path d="M17863 12754 c-12 -32 37 -274 138 -679 33 -132 75 -328 95 -435 36
-204 85 -437 109 -517 8 -27 11 -51 6 -57 -55 -68 -44 -688 20 -1178 11 -86
32 -203 45 -260 20 -81 28 -146 35 -303 10 -230 17 -305 28 -305 11 0 19 51
33 213 15 163 15 997 0 1117 -27 219 -62 462 -77 535 -11 51 -17 116 -16 180
6 316 -234 1379 -374 1656 -27 53 -32 57 -42 33z"/>
<path d="M15995 12722 c-211 -102 -254 -496 -105 -945 100 -301 258 -531 419
-610 57 -28 76 -32 146 -32 69 0 86 4 127 28 119 70 181 221 180 442 -1 260
-106 599 -259 833 -58 89 -208 234 -276 267 -77 37 -175 44 -232 17z"/>
<path d="M4062 12650 c-156 -79 -282 -300 -282 -498 0 -171 93 -272 251 -272
56 0 77 6 137 35 123 62 204 182 238 354 30 153 12 281 -50 349 -63 71 -189
84 -294 32z"/>
<path d="M13555 12338 c-145 -27 -290 -147 -363 -298 -68 -142 -77 -188 -76
-405 0 -173 2 -199 26 -286 57 -210 140 -363 267 -490 71 -71 102 -94 181
-133 196 -96 379 -100 550 -10 130 68 224 194 272 361 29 102 31 314 5 446
-51 252 -161 474 -311 622 -161 160 -360 230 -551 193z"/>
<path d="M6993 12276 c-191 -48 -335 -209 -405 -452 -19 -67 -23 -102 -22
-234 0 -141 2 -162 27 -237 81 -242 271 -369 502 -336 164 23 299 129 379 296
62 129 80 214 79 367 -1 287 -100 488 -279 572 -56 26 -83 32 -149 35 -44 1
-104 -4 -132 -11z"/>
<path d="M2354 12246 c-81 -36 -129 -123 -128 -236 1 -156 87 -263 169 -212
56 35 135 227 135 329 0 103 -83 159 -176 119z"/>
<path d="M17000 12193 c-53 -19 -118 -118 -144 -216 -71 -274 35 -813 236
-1199 92 -176 188 -255 279 -231 l39 10 0 -41 c0 -23 -3 -92 -7 -153 l-6 -113
-34 53 c-104 158 -226 204 -348 132 -60 -35 -107 -95 -159 -206 -50 -105 -87
-228 -113 -369 -26 -145 -23 -429 5 -582 28 -151 89 -335 155 -470 44 -90 49
-107 32 -100 -11 4 -45 7 -75 6 -103 -1 -212 -81 -333 -244 -39 -54 -77 -106
-84 -116 -9 -15 -12 14 -13 146 -1 256 -34 395 -146 616 -70 139 -72 124 20
139 59 10 147 58 199 109 166 161 251 473 226 833 -29 416 -201 756 -443 880
-37 19 -72 28 -127 31 -67 4 -84 1 -132 -21 -261 -119 -391 -583 -311 -1102
28 -178 95 -352 204 -530 22 -36 40 -66 40 -68 0 -1 -30 -2 -67 -2 -134 -1
-260 -71 -411 -229 l-90 -95 -7 67 c-27 299 -78 445 -234 677 l-70 103 82 1
c247 1 422 155 499 441 20 75 22 109 23 285 0 223 -10 292 -70 472 -111 332
-316 557 -540 592 -80 12 -181 -3 -279 -42 -66 -26 -84 -38 -113 -76 -55 -74
-131 -239 -160 -346 -25 -92 -27 -115 -27 -295 -1 -179 2 -204 26 -302 47
-184 131 -377 231 -529 l43 -65 -96 0 c-120 1 -211 -27 -318 -97 -75 -49 -209
-177 -254 -242 -12 -19 -26 -35 -29 -35 -3 0 -9 36 -12 79 -8 103 -42 266 -74
361 -127 371 -370 574 -688 573 -188 0 -346 -64 -475 -192 -68 -67 -85 -91
-139 -201 -219 -447 -168 -852 165 -1317 l15 -21 -58 16 c-39 11 -97 16 -178
16 -102 -1 -132 -5 -200 -27 -257 -85 -464 -317 -569 -639 -53 -162 -69 -280
-63 -471 5 -192 24 -276 91 -412 32 -64 66 -113 118 -169 66 -72 70 -79 43
-72 -17 4 -82 10 -146 13 -155 7 -250 -12 -384 -77 -255 -124 -445 -372 -533
-699 -23 -85 -26 -116 -26 -266 -1 -192 9 -246 71 -375 27 -57 55 -94 117
-156 95 -95 193 -155 321 -198 82 -27 101 -30 225 -29 117 0 147 3 223 26 98
30 223 90 309 148 31 22 59 39 61 39 2 0 -5 -33 -16 -72 -24 -94 -26 -231 -3
-315 13 -50 88 -264 121 -344 5 -14 -10 -18 -102 -27 -188 -19 -351 -73 -478
-157 -141 -94 -283 -261 -349 -412 -53 -123 -69 -206 -70 -363 -1 -134 1 -151
28 -234 64 -194 217 -316 417 -333 175 -15 412 61 657 210 51 32 94 57 96 57
1 0 -17 -60 -42 -132 -39 -114 -46 -148 -50 -233 -2 -58 0 -117 7 -142 44
-163 218 -243 465 -215 220 26 354 86 555 249 l34 28 -43 -70 c-49 -80 -120
-226 -145 -300 -24 -68 -31 -176 -15 -215 53 -127 268 -126 510 3 230 124 474
342 598 536 94 147 152 323 152 464 l0 77 63 0 c142 1 341 112 545 304 l53 50
-46 -85 c-26 -46 -62 -116 -80 -155 -30 -61 -48 -83 -146 -170 -170 -150 -330
-336 -353 -410 -4 -12 -32 -39 -64 -59 -183 -122 -454 -400 -588 -604 -19 -30
-60 -65 -134 -114 -236 -158 -400 -295 -400 -335 0 -12 6 -22 13 -22 6 0 -33
-24 -88 -53 -153 -81 -289 -175 -429 -294 -42 -36 -77 -56 -120 -69 -86 -26
-276 -100 -450 -178 -82 -36 -152 -66 -156 -66 -4 0 -10 13 -13 29 -22 107
-366 53 -632 -100 -50 -29 -134 -69 -187 -90 -114 -45 -178 -76 -178 -88 0 -8
105 5 122 15 21 13 4 -16 -28 -47 -19 -18 -47 -53 -62 -77 -15 -23 -36 -45
-47 -47 -11 -3 -137 -30 -280 -61 -143 -30 -270 -57 -282 -60 -18 -5 -21 -2
-16 15 10 38 -16 79 -66 103 -40 20 -60 23 -161 22 -93 -1 -132 -6 -203 -28
-110 -33 -190 -73 -261 -131 -52 -42 -62 -46 -152 -59 -53 -8 -99 -18 -103
-22 -5 -6 112 2 160 11 16 3 19 0 14 -13 -4 -9 -12 -29 -17 -45 -9 -25 -14
-27 -69 -27 -33 0 -59 -4 -59 -10 0 -6 26 -10 58 -10 46 0 60 -4 70 -20 15
-25 27 -25 -269 -5 -319 21 -403 31 -434 51 -38 25 -269 25 -340 0 -63 -23
-113 -60 -121 -90 -4 -18 -22 -30 -75 -51 -64 -25 -95 -45 -69 -45 6 0 38 11
73 25 40 17 63 22 65 15 2 -6 14 -23 26 -37 l23 -26 -56 -30 c-31 -16 -65 -37
-76 -47 -11 -10 -35 -22 -54 -27 -46 -12 -51 -31 -9 -37 77 -12 297 -16 303
-6 8 13 -36 31 -93 38 l-43 5 30 28 c17 15 31 35 31 44 0 11 6 15 18 11 90
-28 191 -33 285 -15 50 9 61 8 85 -8 36 -25 79 -43 102 -43 11 0 29 -10 40
-22 23 -25 22 -25 284 -20 200 4 553 48 534 67 -1 2 -46 7 -98 10 -202 15
-225 19 -228 37 -2 12 5 17 25 20 15 2 -102 29 -260 60 -251 49 -290 60 -306
80 -11 13 -18 24 -17 25 1 1 35 -2 75 -8 127 -16 429 -39 509 -39 78 0 122 -7
122 -19 0 -3 -55 -5 -122 -3 -78 1 -118 -1 -108 -7 27 -17 192 -32 413 -38
214 -6 263 -16 139 -29 -35 -4 -65 -10 -67 -15 -12 -18 130 -25 325 -16 202 9
642 105 710 155 15 11 56 26 91 32 35 6 111 22 168 36 57 13 123 26 145 29 23
2 41 4 41 5 0 1 8 3 18 5 101 19 580 192 701 252 146 73 22 40 -258 -69 -98
-38 -180 -68 -182 -65 -2 2 22 14 54 27 31 13 88 39 127 58 38 19 153 63 255
97 102 35 221 77 264 94 94 36 115 33 30 -5 -184 -81 -247 -115 -176 -95 133
39 838 373 826 392 -4 8 35 25 49 21 5 -1 5 3 1 9 -5 9 -2 10 10 6 11 -5 15
-3 10 5 -5 8 -2 9 9 5 9 -3 16 -2 14 3 -3 11 143 104 308 195 110 61 218 124
343 202 55 34 5 -6 -70 -56 -43 -28 -78 -54 -78 -57 0 -4 12 2 28 12 121 79
161 108 157 115 -3 4 0 11 6 15 8 4 9 3 5 -4 -4 -7 -5 -12 -2 -12 5 0 209 141
421 291 183 130 435 333 435 351 0 12 -121 -72 -290 -200 -199 -151 -202 -150
-14 6 67 55 125 105 129 111 3 6 30 23 60 37 57 28 202 133 297 215 56 49 75
60 62 37 -4 -7 11 3 32 23 419 382 973 973 942 1005 -3 2 -92 -84 -198 -193
-106 -109 -200 -202 -208 -207 -9 -5 29 42 83 105 55 63 113 131 129 152 16
21 46 47 66 57 46 23 153 129 254 250 102 122 101 121 82 80 l-17 -35 20 25
c48 58 291 403 416 590 180 270 385 614 385 645 0 19 -37 -31 -182 -248 -88
-133 -165 -244 -171 -246 -5 -2 -7 0 -5 5 3 5 39 65 80 134 42 69 89 153 106
186 17 34 54 92 81 128 66 87 163 251 274 461 49 94 86 163 84 155 -3 -8 -33
-82 -67 -164 -33 -81 -59 -150 -57 -152 7 -7 267 583 404 916 66 160 168 449
154 435 -8 -8 -129 -292 -307 -723 -15 -34 -28 -61 -29 -60 -5 6 53 173 83
240 86 188 210 570 247 758 9 47 32 134 51 194 20 61 50 169 69 240 31 123
103 336 105 309 0 -13 -117 -597 -126 -625 -3 -10 -1 -18 4 -18 5 0 12 12 15
28 4 15 33 140 66 277 102 431 129 562 176 864 25 162 44 296 42 298 -3 2 -17
-62 -33 -141 -15 -80 -30 -144 -31 -142 -2 2 3 57 11 122 37 288 44 591 15
696 -5 21 -18 43 -28 50 -17 12 -19 33 -24 223 -5 221 -18 305 -54 354 -26 34
-59 38 -89 10 -20 -19 -39 -65 -71 -179 -2 -8 -14 15 -26 51 -59 174 -158 224
-246 124 -89 -102 -145 -267 -196 -577 -4 -24 -14 -42 -27 -49 -20 -11 -20 -9
-14 32 40 271 34 513 -19 753 -24 105 -24 110 -7 135 28 40 42 78 57 153 18
82 20 289 4 389 -9 57 -8 82 6 142 23 97 30 290 16 428 -45 432 -242 862 -435
950 -40 18 -95 23 -126 12z m-3057 -3145 c15 -272 85 -561 168 -694 l21 -34
-49 0 c-148 0 -334 -94 -534 -271 l-66 -59 -7 103 c-22 320 -109 534 -277 679
l-50 43 100 -3 c120 -4 242 17 352 59 130 50 264 158 307 247 9 17 19 32 22
32 4 0 10 -46 13 -102z m3366 -414 c-23 -215 5 -389 73 -458 25 -24 34 -28 65
-23 38 7 83 43 111 90 9 15 19 27 23 27 4 0 9 -12 12 -27 13 -65 87 -143 134
-143 83 0 188 175 243 406 31 126 28 120 49 92 19 -23 19 -27 1 -173 -11 -83
-24 -220 -31 -305 -9 -126 -16 -163 -34 -200 -38 -74 -112 -288 -170 -490 -30
-105 -69 -218 -86 -252 -116 -230 -291 -812 -334 -1108 -14 -98 -23 -129 -62
-207 -43 -86 -49 -93 -98 -117 -29 -15 -76 -51 -104 -81 -29 -30 -54 -55 -56
-55 -2 0 1 16 7 36 5 20 7 60 4 88 -11 88 -10 99 9 186 11 47 19 123 19 170 1
71 -3 93 -24 134 -33 66 -67 90 -127 90 -98 0 -238 -107 -369 -282 -32 -42
-62 -81 -66 -87 -5 -5 6 31 22 80 17 50 40 135 51 190 11 55 34 134 51 175 66
158 86 307 53 387 -8 20 -14 37 -13 38 2 1 23 13 48 27 25 14 75 57 111 95
116 120 203 274 273 486 77 231 101 400 93 665 -6 210 -27 321 -92 478 -19 46
-35 85 -35 87 0 1 23 0 51 -2 64 -4 124 18 170 63 19 19 35 33 37 31 2 -1 -2
-52 -9 -111z m-2116 -436 c10 -238 30 -357 82 -480 5 -14 -15 -28 -117 -79
-146 -73 -225 -125 -266 -174 l-30 -37 -26 144 c-47 248 -78 347 -128 404 -17
19 -29 36 -27 38 2 2 38 16 79 31 196 73 339 174 396 281 10 19 21 34 25 34 3
0 9 -73 12 -162z m1052 -681 c1 -235 16 -374 57 -505 10 -35 18 -65 16 -66 -2
-1 -30 -7 -63 -14 -90 -17 -211 -83 -291 -157 -38 -36 -69 -65 -69 -65 0 306
-8 406 -50 610 -5 23 1 28 72 62 124 58 239 176 304 311 13 26 23 47 23 47 1
0 1 -100 1 -223z m-3065 -602 c17 -107 46 -224 74 -299 14 -38 26 -71 26 -75
0 -4 -18 -8 -40 -9 -147 -9 -329 -96 -543 -260 -32 -24 -60 -42 -62 -40 -2 2
1 37 7 78 35 248 -44 507 -206 674 l-45 46 82 0 c255 1 489 76 620 199 l62 59
7 -151 c3 -84 11 -183 18 -222z m1194 -582 c4 -32 16 -132 28 -223 31 -239 35
-216 -44 -244 -80 -28 -190 -87 -306 -162 l-84 -55 5 33 c15 84 18 190 8 260
-11 77 -45 192 -64 216 -5 7 -8 14 -6 16 2 2 60 24 128 50 137 51 270 117 297
147 9 10 20 19 24 19 4 0 11 -26 14 -57z m1074 -1011 c8 -13 12 -25 10 -26 -2
-1 -25 -11 -53 -21 -125 -45 -288 -137 -387 -218 -32 -26 -58 -46 -58 -44 0 2
8 28 19 58 32 94 44 187 38 309 -2 63 -8 124 -11 135 -6 17 12 30 135 95 154
81 250 146 271 182 11 20 14 -12 18 -212 4 -169 9 -242 18 -258z m787 69 c-19
-57 -35 -110 -35 -118 0 -11 -5 -13 -17 -7 -36 16 -90 8 -132 -19 -34 -23 -27
-13 36 50 43 43 100 106 128 140 27 34 51 61 52 59 1 -1 -13 -49 -32 -105z
m-305 -248 c-52 -57 -131 -157 -188 -239 -11 -17 -12 -14 -8 21 3 22 6 67 6
101 l0 60 68 22 c38 12 93 40 123 61 30 22 56 40 57 40 2 1 -24 -29 -58 -66z
m187 -307 c1 -69 21 -119 55 -137 50 -27 150 2 226 65 16 15 41 26 55 26 26 0
84 35 129 78 26 24 24 17 -23 -89 -67 -151 -118 -299 -125 -364 -6 -46 -4 -54
15 -67 20 -14 19 -16 -50 -106 -39 -51 -73 -92 -76 -92 -3 0 -3 10 0 22 9 31
-10 58 -39 58 -24 0 -26 3 -20 34 14 76 -60 62 -164 -31 -27 -25 -50 -43 -50
-40 0 2 20 47 45 98 76 161 96 290 55 356 -27 45 -53 56 -126 51 -34 -2 -60 0
-58 4 3 4 34 46 70 93 35 47 64 90 64 95 0 6 3 10 8 10 4 0 8 -29 9 -64z
m-2627 -436 c7 -19 22 -45 33 -57 11 -13 18 -25 16 -28 -3 -2 -50 -18 -105
-34 -229 -69 -380 -149 -507 -270 l-48 -46 16 44 c31 89 57 245 57 346 0 119
-26 216 -73 269 l-30 35 48 6 c237 32 415 89 528 172 l40 30 6 -216 c4 -133
11 -229 19 -251z m1012 -132 c-38 -156 -45 -203 -46 -298 -1 -83 2 -102 24
-146 l26 -52 -70 -6 c-170 -16 -429 -140 -585 -282 -30 -27 -52 -44 -50 -39 3
6 26 53 51 105 75 156 101 248 102 365 1 55 -2 112 -6 126 -7 25 -5 27 29 34
169 31 390 139 498 243 22 21 42 37 43 36 2 -1 -5 -40 -16 -86z m950 -830 c2
-17 10 -23 29 -23 25 1 24 -2 -37 -96 -84 -130 -134 -229 -134 -269 0 -31 2
-32 32 -28 32 5 31 4 -27 -49 -135 -122 -175 -154 -175 -145 0 6 5 14 10 17
13 8 13 65 0 65 -6 0 -1 18 10 40 49 96 -15 79 -215 -58 -92 -63 -105 -70 -82
-41 66 82 166 241 182 289 24 72 24 123 1 149 -18 20 -18 22 -1 41 17 19 18
19 43 0 54 -43 175 -7 297 89 59 47 63 48 67 19z m-1216 -1158 c8 -8 19 -8 38
0 35 13 56 13 33 -1 -29 -17 -218 -231 -238 -270 -22 -44 -169 -139 -263 -170
-111 -37 -410 -207 -712 -404 -135 -88 -153 -97 -368 -174 -124 -45 -228 -81
-232 -81 -3 0 2 10 10 22 21 29 20 35 -4 48 -29 16 -124 -4 -249 -51 -86 -32
-277 -89 -299 -89 -3 0 28 23 69 51 41 28 99 74 129 104 30 29 69 56 85 60 61
14 304 109 424 166 68 33 126 59 128 59 2 0 -17 -27 -42 -60 -25 -33 -52 -75
-60 -94 -13 -31 -13 -37 1 -50 8 -9 26 -16 39 -16 69 0 283 92 445 191 47 28
153 87 235 131 83 44 196 107 251 140 100 59 204 140 204 159 0 16 -43 9 -105
-16 -33 -14 -62 -25 -63 -25 -2 0 15 22 37 49 89 106 99 181 24 181 -36 0 -33
2 56 54 94 53 94 53 114 33 29 -29 113 -19 213 26 93 41 87 40 100 27z m-2417
-1284 c-2 -2 -47 -29 -99 -61 -52 -31 -123 -79 -157 -106 l-61 -48 -216 -48
c-203 -45 -252 -62 -188 -64 25 -1 24 -2 -8 -10 -19 -5 -82 -23 -140 -39 -109
-29 -212 -48 -175 -31 11 5 57 24 102 41 45 18 102 45 127 60 35 23 74 34 193
54 207 35 377 81 346 93 -6 2 -107 -10 -224 -26 -185 -27 -214 -29 -221 -17
-28 50 -231 20 -475 -68 -40 -14 -86 -26 -103 -26 -29 0 -42 -14 -19 -22 6 -2
-12 -18 -41 -36 l-51 -32 -152 1 -152 1 70 13 c89 17 197 51 255 80 26 13 82
28 133 34 144 19 187 43 60 34 l-77 -6 44 42 c43 41 50 44 140 57 150 23 383
71 483 100 12 4 17 0 17 -15 0 -12 9 -30 20 -41 27 -27 122 -27 226 1 263 71
352 93 343 85z m-2257 -457 c-4 -3 -32 -11 -62 -18 -30 -6 -79 -22 -108 -36
l-53 -25 -59 30 -59 30 30 29 c16 16 29 38 29 48 0 17 10 16 144 -17 80 -19
141 -38 138 -41z"/>
<path d="M17507 8026 c-41 -15 -57 -27 -120 -91 -174 -177 -346 -611 -407
-1025 -22 -147 -26 -316 -10 -401 15 -77 56 -156 90 -174 68 -35 144 -12 225
68 163 164 305 501 380 903 64 345 53 603 -28 690 -38 40 -77 49 -130 30z"/>
<path d="M10345 12143 c-312 -47 -509 -273 -545 -623 -30 -300 77 -613 274
-798 114 -106 238 -155 391 -154 400 1 692 374 645 824 -17 163 -76 335 -158
454 -53 79 -164 182 -238 221 -101 54 -277 90 -369 76z"/>
<path d="M4970 11715 c-201 -56 -360 -272 -393 -536 -34 -269 88 -468 316
-515 134 -28 262 13 365 116 177 177 239 541 128 758 -74 144 -255 221 -416
177z"/>
<path d="M17823 11642 c-10 -10 -31 -19 -48 -20 -106 -6 -160 -288 -123 -642
39 -379 174 -854 270 -957 42 -45 93 -23 133 56 48 96 77 425 55 631 -4 41
-15 158 -24 260 -33 359 -102 598 -192 669 -33 26 -48 26 -71 3z"/>
<path d="M8275 11394 c-124 -16 -218 -54 -311 -124 -128 -97 -221 -266 -255
-464 -17 -100 -6 -302 21 -396 54 -186 168 -325 333 -404 118 -56 179 -71 297
-70 110 1 157 12 259 61 148 70 260 220 312 418 30 109 32 346 5 450 -37 144
-128 298 -227 384 -119 102 -299 162 -434 145z"/>
<path d="M11705 11390 c-267 -57 -471 -274 -551 -585 -23 -86 -26 -121 -26
-250 0 -130 3 -163 26 -250 72 -274 237 -474 473 -573 125 -53 333 -70 458
-37 255 66 434 260 507 551 31 126 31 359 0 487 -81 329 -286 556 -574 637
-81 23 -250 34 -313 20z"/>
<path d="M3023 11240 c-165 -84 -258 -387 -188 -617 33 -109 126 -189 210
-180 97 10 188 87 247 208 55 112 72 187 72 315 1 104 -1 114 -29 169 -20 40
-45 69 -73 90 -38 26 -54 30 -120 33 -63 2 -85 -1 -119 -18z"/>
<path d="M1396 10816 c-87 -87 -94 -311 -11 -332 89 -22 182 163 146 291 -9
32 -19 44 -49 58 -21 9 -41 17 -45 17 -3 0 -22 -15 -41 -34z"/>
<path d="M6063 10735 c-154 -33 -290 -148 -367 -307 -66 -139 -81 -207 -80
-373 0 -124 3 -149 27 -221 76 -230 254 -364 485 -367 185 -1 353 82 457 227
78 109 113 221 120 375 13 332 -157 594 -431 666 -70 18 -128 18 -211 0z"/>
<path d="M9605 10539 c-287 -44 -488 -241 -567 -556 -18 -73 -22 -115 -22
-248 1 -174 12 -232 73 -390 150 -389 547 -557 906 -385 206 99 343 275 412
530 25 92 25 358 0 450 -73 267 -212 449 -412 540 -117 53 -274 77 -390 59z"/>
<path d="M3997 10200 c-107 -27 -206 -113 -258 -224 -83 -177 -78 -425 11
-612 51 -106 114 -175 195 -215 60 -29 71 -31 142 -27 91 5 139 27 200 88 118
118 176 298 167 525 -9 226 -87 376 -231 442 -62 29 -162 39 -226 23z"/>
<path d="M7395 9800 c-82 -11 -179 -45 -246 -86 -72 -43 -168 -145 -212 -226
-105 -189 -131 -473 -66 -708 96 -348 407 -550 728 -475 158 38 319 167 398
320 203 394 117 884 -189 1083 -117 76 -275 111 -413 92z"/>
<path d="M2135 9742 c-96 -45 -146 -148 -153 -316 -6 -159 21 -263 89 -341 82
-93 208 -97 291 -9 100 107 129 385 57 539 -23 49 -70 100 -112 122 -48 24
-126 27 -172 5z"/>
<path d="M11041 9730 c-304 -65 -510 -266 -597 -585 -25 -91 -27 -116 -28
-280 -1 -167 1 -188 28 -290 57 -219 141 -371 275 -498 133 -124 268 -177 456
-177 123 0 205 19 312 70 258 125 431 371 488 694 76 436 -140 861 -513 1012
-32 13 -85 30 -118 39 -72 19 -243 28 -303 15z"/>
<path d="M5117 9169 c-118 -28 -233 -120 -295 -236 -69 -130 -96 -321 -68
-480 44 -254 167 -443 345 -531 73 -36 78 -37 186 -37 104 0 114 2 177 33 80
39 174 135 218 222 57 113 75 199 75 360 0 173 -18 266 -76 387 -68 142 -174
235 -318 277 -59 17 -182 20 -244 5z"/>
<path d="M8760 8864 c-292 -62 -498 -265 -582 -575 -32 -118 -32 -345 1 -464
77 -285 291 -511 551 -582 103 -28 273 -23 375 10 428 142 637 619 479 1095
-47 142 -101 231 -199 328 -66 66 -99 90 -176 127 -148 73 -299 94 -449 61z"/>
<path d="M3141 8670 c-164 -34 -273 -212 -273 -450 -1 -231 111 -434 288 -521
59 -29 78 -34 144 -33 87 0 133 20 191 81 81 84 114 194 113 368 -1 195 -55
347 -161 452 -87 85 -198 124 -302 103z"/>
<path d="M1480 8233 c-58 -21 -100 -110 -100 -210 0 -120 53 -288 108 -346 63
-66 141 -77 191 -26 99 99 75 427 -40 536 -50 47 -109 64 -159 46z"/>
<path d="M6405 8141 c-180 -52 -326 -203 -390 -404 -82 -259 -35 -561 120
-766 117 -153 306 -244 510 -243 298 0 517 184 579 484 20 97 21 275 1 366
-59 283 -237 486 -489 559 -97 29 -241 30 -331 4z"/>
<path d="M10295 8019 c-205 -26 -362 -105 -501 -251 -109 -115 -174 -237 -216
-406 -32 -127 -32 -371 0 -491 85 -314 295 -512 610 -578 56 -11 111 -14 202
-11 182 7 316 54 458 161 372 280 419 996 88 1344 -84 89 -161 142 -264 182
-116 44 -267 65 -377 50z"/>
<path d="M4273 7562 c-173 -62 -263 -217 -263 -453 0 -227 87 -439 240 -583
264 -249 596 -167 675 166 32 135 13 352 -45 509 -59 162 -154 273 -290 338
-67 32 -85 36 -170 38 -73 3 -107 -1 -147 -15z"/>
<path d="M7830 7195 c-106 -24 -223 -89 -304 -170 -84 -83 -127 -153 -170
-272 -30 -86 -31 -93 -31 -258 0 -166 1 -172 33 -265 76 -219 212 -372 414
-464 111 -51 197 -70 323 -70 130 -1 191 12 303 66 209 99 335 313 349 593 19
384 -182 709 -508 820 -72 24 -103 29 -214 31 -87 2 -151 -1 -195 -11z"/>
<path d="M2525 7115 c-5 -2 -22 -6 -37 -9 -94 -21 -161 -166 -153 -329 14
-255 182 -491 371 -522 119 -19 207 67 223 218 27 249 -89 526 -255 610 -46
24 -126 41 -149 32z"/>
<path d="M1129 6713 c-9 -11 -14 -43 -14 -97 0 -72 4 -89 33 -149 53 -108 147
-162 174 -101 9 19 9 45 -1 112 -15 108 -43 172 -92 217 -42 38 -79 45 -100
18z"/>
<path d="M5675 6558 c-82 -11 -189 -64 -248 -124 -229 -234 -182 -722 93 -977
189 -175 450 -217 644 -103 54 31 120 104 153 169 84 167 86 430 4 643 -104
269 -364 427 -646 392z"/>
<path d="M9364 6306 c-227 -43 -395 -156 -516 -346 -85 -134 -123 -290 -115
-470 8 -185 66 -331 179 -454 245 -268 697 -332 1014 -145 74 44 189 158 233
232 79 135 116 293 108 471 -6 142 -22 210 -78 326 -34 70 -58 101 -133 175
-104 104 -181 149 -321 190 -111 32 -266 41 -371 21z"/>
<path d="M3647 6056 c-61 -22 -104 -62 -134 -123 -26 -54 -28 -67 -28 -173 1
-140 23 -230 93 -364 62 -121 168 -231 268 -278 136 -64 260 -48 339 45 58 68
78 152 72 300 -5 139 -22 211 -73 315 -52 108 -136 192 -241 244 -76 38 -93
42 -171 45 -57 2 -100 -1 -125 -11z"/>
<path d="M2107 5679 c-25 -14 -47 -69 -47 -115 0 -93 63 -248 145 -354 136
-177 305 -207 322 -57 18 159 -135 451 -271 516 -46 23 -119 27 -149 10z"/>
<path d="M7110 5614 c-158 -27 -239 -62 -319 -139 -107 -102 -152 -220 -152
-395 0 -267 153 -542 378 -679 223 -136 528 -113 712 54 172 157 218 388 131
659 -40 125 -91 207 -186 302 -88 89 -192 149 -309 179 -61 16 -209 27 -255
19z"/>
<path d="M10825 5564 c-325 -73 -585 -335 -680 -684 -25 -95 -32 -324 -11
-412 37 -158 152 -312 285 -382 104 -54 197 -76 328 -76 163 0 278 27 427 101
239 119 417 329 488 576 19 64 23 102 22 208 0 113 -4 141 -27 210 -93 283
-336 455 -662 470 -70 3 -121 0 -170 -11z"/>
<path d="M4982 5074 c-101 -27 -159 -74 -201 -164 -23 -49 -26 -67 -26 -165 1
-117 18 -191 73 -300 92 -185 265 -337 441 -389 128 -37 263 -11 341 67 78 78
110 174 110 330 0 184 -53 310 -185 443 -60 61 -99 90 -155 117 -143 70 -285
92 -398 61z"/>
<path d="M8495 4785 c-250 -46 -419 -183 -490 -398 -108 -327 56 -664 390
-798 217 -86 471 -82 656 12 146 73 264 236 294 406 39 217 -12 425 -140 570
-151 171 -445 258 -710 208z"/>
<path d="M3398 4714 c-4 -4 -26 -8 -50 -10 -155 -15 -184 -184 -69 -413 104
-206 285 -354 434 -354 102 0 152 62 150 188 -5 208 -165 468 -343 553 -72 35
-112 47 -122 36z"/>
<path d="M2122 4388 c-35 -35 24 -169 123 -276 90 -97 166 -125 181 -66 17 67
-97 265 -187 326 -44 29 -96 37 -117 16z"/>
<path d="M6358 4220 c-62 -16 -150 -66 -190 -107 -20 -21 -49 -63 -64 -93 -25
-48 -29 -69 -32 -162 -4 -89 -1 -119 18 -180 38 -128 85 -204 185 -304 76 -76
106 -99 185 -138 146 -72 257 -89 380 -60 84 19 136 50 198 119 85 93 123 239
102 395 -36 261 -179 431 -434 512 -70 23 -287 33 -348 18z"/>
<path d="M9886 4045 c-256 -53 -433 -180 -526 -376 -83 -177 -77 -397 15 -555
59 -101 207 -208 344 -248 306 -90 672 20 853 255 115 148 165 361 123 524
-48 186 -164 303 -370 374 -91 31 -112 34 -235 37 -90 2 -158 -1 -204 -11z"/>
<path d="M4545 3801 c-240 -109 -79 -549 261 -715 161 -79 321 -86 396 -19 78
69 76 224 -4 390 -43 88 -195 245 -283 290 -141 73 -283 94 -370 54z"/>
<path d="M3228 3519 c-26 -15 -23 -83 7 -148 81 -173 279 -357 407 -377 28 -5
40 -2 58 16 19 19 21 29 16 69 -13 98 -133 295 -227 372 -71 58 -121 79 -186
79 -32 0 -66 -5 -75 -11z"/>
<path d="M7736 3444 c-144 -32 -245 -104 -298 -212 -32 -64 -33 -72 -33 -182
0 -127 16 -179 86 -296 137 -227 419 -354 665 -299 263 58 419 253 385 481
-35 234 -191 415 -426 490 -103 34 -275 42 -379 18z"/>
<path d="M11168 3430 c-93 -19 -215 -68 -305 -122 -82 -48 -223 -190 -271
-273 -68 -117 -86 -182 -87 -315 0 -104 2 -120 27 -172 161 -343 753 -341
1111 4 94 92 181 237 212 359 26 98 18 238 -18 311 -31 62 -103 135 -166 168
-119 60 -328 77 -503 40z"/>
<path d="M5913 3020 c-84 -18 -149 -72 -173 -146 -36 -109 27 -278 153 -411
147 -154 307 -233 478 -233 102 0 170 33 213 104 27 42 31 59 34 140 5 105
-16 183 -72 270 -40 62 -137 154 -203 191 -125 70 -320 109 -430 85z"/>
<path d="M12350 2915 c-283 -64 -530 -220 -689 -435 -96 -129 -141 -248 -141
-369 1 -126 48 -194 157 -227 57 -18 196 -19 273 -4 235 48 497 188 665 354
98 99 155 186 190 291 23 67 26 93 23 166 -3 78 -6 92 -33 131 -21 28 -50 53
-89 72 -53 27 -68 30 -174 33 -76 2 -140 -3 -182 -12z"/>
<path d="M9085 2810 c-306 -48 -479 -234 -462 -495 6 -112 43 -189 124 -266
72 -69 125 -100 228 -134 229 -77 518 -20 673 133 135 132 176 336 101 498
-51 109 -188 208 -344 249 -74 20 -240 27 -320 15z"/>
<path d="M4506 2731 c-95 -14 -111 -79 -49 -202 45 -91 194 -244 293 -302 84
-49 190 -81 238 -73 183 29 -14 404 -282 537 -89 43 -126 51 -200 40z"/>
<path d="M3555 2519 c-4 -5 -4 -20 -1 -32 12 -46 161 -184 246 -227 44 -23 90
-26 90 -7 0 24 -43 81 -114 152 -95 93 -201 148 -221 114z"/>
<path d="M13175 2489 c-215 -50 -454 -189 -641 -374 -195 -192 -304 -407 -249
-491 60 -93 292 -63 554 71 155 79 279 171 416 309 104 104 127 133 165 209
39 77 45 97 45 152 0 71 -16 98 -72 121 -36 16 -156 17 -218 3z"/>
<path d="M7204 2356 c-34 -8 -75 -21 -92 -30 -189 -98 -186 -322 8 -517 130
-130 254 -183 430 -184 161 0 259 46 310 145 81 159 -45 426 -250 527 -128 63
-288 86 -406 59z"/>
<path d="M10245 2254 c-219 -49 -400 -174 -477 -331 -31 -63 -33 -75 -33 -168
0 -91 2 -104 27 -147 37 -62 108 -123 173 -147 177 -66 374 -47 585 57 119 58
238 170 291 272 32 61 34 71 34 166 0 94 -2 103 -30 149 -37 60 -96 106 -172
136 -77 29 -292 36 -398 13z"/>
<path d="M5682 2045 c-95 -42 -64 -172 77 -318 182 -189 478 -287 548 -181 25
38 12 128 -28 206 -49 91 -157 196 -249 241 -131 64 -272 85 -348 52z"/>
<path d="M4688 1848 c-17 -12 -17 -15 -2 -43 53 -102 332 -287 436 -289 31 -1
43 3 46 15 9 45 -170 207 -307 278 -88 46 -147 59 -173 39z"/>
<path d="M11330 1843 c-227 -27 -494 -165 -624 -321 -113 -136 -130 -297 -39
-359 58 -40 94 -48 218 -47 99 1 136 6 210 28 111 33 259 103 340 161 78 56
192 177 228 242 69 129 31 231 -103 276 -49 16 -174 27 -230 20z"/>
<path d="M8385 1786 c-172 -43 -259 -133 -260 -271 -1 -194 176 -338 443 -360
200 -17 377 57 439 182 93 190 -45 387 -314 447 -84 19 -236 20 -308 2z"/>
<path d="M6913 1490 c-54 -11 -100 -35 -113 -59 -57 -107 132 -313 360 -392
90 -31 233 -38 284 -14 39 19 66 59 66 98 0 43 -61 148 -121 207 -61 60 -161
118 -246 143 -68 20 -177 28 -230 17z"/>
<path d="M9455 1355 c-215 -47 -335 -159 -335 -312 0 -213 342 -295 628 -151
122 61 212 177 212 272 0 87 -73 159 -195 190 -72 19 -226 20 -310 1z"/>
<path d="M5843 1313 c-59 -11 -50 -57 26 -125 136 -122 438 -245 480 -195 50
61 -246 284 -414 312 -22 4 -47 8 -55 9 -8 2 -25 1 -37 -1z"/>
<path d="M7931 1041 c-73 -26 -96 -51 -96 -105 0 -124 193 -250 401 -263 157
-11 244 33 244 123 0 113 -115 218 -278 253 -81 17 -208 13 -271 -8z"/>
<path d="M6890 877 c-14 -7 -26 -21 -28 -30 -9 -43 134 -133 288 -182 101 -32
237 -45 250 -25 33 53 -162 183 -344 230 -91 23 -131 25 -166 7z"/>
<path d="M7805 576 c-11 -8 -16 -19 -12 -30 9 -23 115 -71 211 -96 81 -20 230
-28 240 -11 19 29 -103 107 -210 135 -77 20 -203 21 -229 2z"/>
</g>
</svg>
